<?xml version="1.0" standalone="no"?>
<!DOCTYPE svg PUBLIC "-//W3C//DTD SVG 20010904//EN"
 "http://www.w3.org/TR/2001/REC-SVG-20010904/DTD/svg10.dtd">
<svg version="1.0" xmlns="http://www.w3.org/2000/svg"
 width="497.000000pt" height="340.000000pt" viewBox="0 0 497.000000 340.000000"
 preserveAspectRatio="xMidYMid meet">

<g transform="translate(0.000000,340.000000) scale(0.100000,-0.100000)"
fill="rgb(97, 218, 251)" stroke="none">
<path d="M2158 3375 c-589 -72 -1120 -332 -1530 -752 -139 -141 -180 -189
-267 -308 -125 -170 -211 -316 -305 -512 l-49 -101 77 -155 c160 -323 350
-585 590 -814 530 -506 1215 -755 1963 -713 180 11 210 14 353 42 842 161
1532 714 1922 1542 l46 99 -34 76 c-146 320 -335 592 -584 842 -230 230 -422
369 -695 504 -278 137 -575 223 -883 254 -137 14 -471 12 -604 -4z m507 -395
c387 -33 723 -148 1050 -361 310 -201 591 -510 753 -826 l47 -93 -44 -82
c-338 -632 -942 -1063 -1642 -1173 -144 -23 -431 -31 -571 -15 -511 55 -964
265 -1322 610 -186 180 -324 361 -435 569 l-49 94 46 86 c225 423 570 757 997
967 371 182 766 258 1170 224z"/>
<path d="M2385 2639 c-121 -11 -199 -34 -320 -94 -187 -93 -321 -225 -418
-411 -164 -318 -131 -703 85 -997 193 -261 529 -406 850 -369 637 75 1019 752
749 1328 -68 145 -145 244 -266 340 -196 157 -430 227 -680 203z m548 -425
c60 -20 126 -79 157 -140 35 -69 36 -198 2 -264 -53 -100 -128 -151 -237 -158
-128 -8 -227 45 -283 152 -23 44 -27 63 -27 136 0 77 3 90 31 140 33 58 104
121 158 138 48 15 148 14 199 -4z"/>
</g>
</svg>
