<?xml version="1.0" encoding="iso-8859-1"?>
<!-- Generator: Adobe Illustrator 16.0.0, SVG Export Plug-In . SVG Version: 6.00 Build 0)  -->
<!DOCTYPE svg PUBLIC "-//W3C//DTD SVG 1.1//EN" "http://www.w3.org/Graphics/SVG/1.1/DTD/svg11.dtd">
<svg 
fill="rgb(97, 218, 251)"
version="1.1" id="Capa_1" xmlns="http://www.w3.org/2000/svg" xmlns:xlink="http://www.w3.org/1999/xlink" x="0px" y="0px"
	 width="535.5px" height="535.5px" viewBox="0 0 535.5 535.5" style="enable-background:new 0 0 535.5 535.5;" xml:space="preserve"
	>
<g>
	<path d="M220,382.5h95.601v19.1H220V382.5z M220,363.4h95.601v-19.1H220V363.4z M28.7,248.6h95.6v-19.1H28.7V248.6z M92.2,77.5
		l67.6,67.6l13.5-13.5L105.7,64L92.2,77.5z M277.3,0h-19.1v95.6h19.1V0z M315.601,219.9v66.901H220V219.9c0-26.8,21-47.8,47.8-47.8
		C294.601,172.1,315.601,193.1,315.601,219.9z M296.4,219.9c0-15.3-13.4-28.7-28.7-28.7S239,204.6,239,219.9v47.8h57.4V219.9
		L296.4,219.9z M411.2,229.5v19.1h95.6v-19.1H411.2z M430,62.4L362.4,130l13.5,13.5l67.6-67.6L430,62.4z M353.8,219.9v315.6H181.7
		V219.9c0-47.8,38.2-86.1,86.1-86.1C315.7,133.8,353.8,172.1,353.8,219.9z M334.7,219.9c0-36.3-30.6-66.9-66.9-66.9
		c-36.3,0-66.899,30.6-66.899,66.9v296.401H334.8V219.9H334.7z"/>
</g>
<g>
</g>
<g>
</g>
<g>
</g>
<g>
</g>
<g>
</g>
<g>
</g>
<g>
</g>
<g>
</g>
<g>
</g>
<g>
</g>
<g>
</g>
<g>
</g>
<g>
</g>
<g>
</g>
<g>
</g>
</svg>
