<svg id="Layer_1" data-name="Layer 1" xmlns="http://www.w3.org/2000/svg" width="64" height="64" viewBox="0 0 64 64"><defs><style>.cls-1{fill:rgb(255, 251, 0);}</style></defs><title>lightbulb-on</title><path class="cls-1" d="M46.06,26.93c.17-.14.23-.38-.08-1.53A11.51,11.51,0,0,0,44,21.46a9,9,0,0,0-4.44-2.92c-.86.22-.13.79.55,1.23a11.63,11.63,0,0,1,3.21,2.81A9.3,9.3,0,0,1,45,26.77C45.2,27.16,45.89,27.07,46.06,26.93ZM35.29,29.35c-.5-.05-1.73,1.95-1.94,2s-.14-.09-.5-.42S31.71,29.49,31,29.52,29.31,31,29.2,31s-.24-.08-.71-.41-1.73.13-2.07.42-.14,1-.07,1.13.8,3.19,1.33,5a32.18,32.18,0,0,1,.72,3.91c.08.2.69.47.88.5a1.3,1.3,0,0,0,1.09-.55c.19-.28-.17-1.77-.61-4s-1.41-4.56-1.3-4.72.22.08.38.14.31.07.8-.09.64-.61.87-1,.34-.5.66-.49.4.63.82,1.14.61,1,1.49.94,1.76-2.08,2-2.23.37.42.37.83-.31,1.53-.56,3.34-.9,4.8-.75,5.41,1.3.54,1.7.39.49-1.5.8-4.21a51.9,51.9,0,0,0,.55-5.64A6.05,6.05,0,0,0,35.29,29.35ZM33.51,55.8a1.42,1.42,0,0,0-.7.53c-.08.18,1.31,1.52,1.4,1.57s.35-.32.43-.46A6.83,6.83,0,0,0,33.51,55.8ZM18.81,31.63c-.67-1.86.11-3.41.23-4.16s-.56-.59-.9-.46-.57.65-.69,1.84a10,10,0,0,0,.65,4.31,3.1,3.1,0,0,0,1.68,2,.67.67,0,0,0,.53-.15.82.82,0,0,0-.1-.38A16.69,16.69,0,0,1,18.81,31.63Zm26.5,6.87c1.31-1.57,2-2.88,2.85-6.4s.15-5.54-.46-8-1.18-3.5-3.52-6.15a18.6,18.6,0,0,0-8-5.46,15.23,15.23,0,0,0-9.41-.12,18.29,18.29,0,0,0-7.19,4.17,16,16,0,0,0-4.17,5.7,16.22,16.22,0,0,0-1.27,7.46,19.13,19.13,0,0,0,2.17,7.23,16.26,16.26,0,0,0,6.46,5.46c1.62.69,2.11.65,2.16.79s-.58.79-.77,1.19.88,1.54,1.48,2.19-.25.91-.77,1.66A2,2,0,0,0,24.66,50c.13.2,1,.79,1.17,1.12s-.38.88-.77,1.52a1.47,1.47,0,0,0-.25,1.48c.16.56,1.06.56,1.31.65s.08.29,0,.58A2.32,2.32,0,0,0,26,56.91c.19.88,1.52,1.79,3.86,3.11s1.64,1.58,2.87,1.62,1-.29,1.71-.77,1.52-1.29,2.94-2.31a10.4,10.4,0,0,0,2.85-2.5,1.25,1.25,0,0,0-.35-1.73c-.27-.27-.08-.33,0-.54s.42-.21.69-1a3.89,3.89,0,0,0,.18-1.88c-.06-.44-.58-.69-.73-.83s.11-.71.48-1a1.89,1.89,0,0,0,.77-1.63c0-.79-.47-.75-1-1.06s-.46-.52-.42-1a3.82,3.82,0,0,1,.48-2.06c.52-.84.27-1,.27-1a12.28,12.28,0,0,0,1.48-.88A14.1,14.1,0,0,0,45.31,38.5Zm-7,8.85c-.09.12-.61.06-.61.48s.25,1.1,0,1.25-1,.27-1,.58.81,2,1,2.63.32.62.17.71-.15.22-.23.08-.73-1.61-.9-1.61-1.06.32-.72.63a17.31,17.31,0,0,1,1.2,2.5c.09.12.69,1,.61,1.15s-.5.62-.56.56a26.8,26.8,0,0,0-1.5-2.75c-.23-.09-1.05.08-.88.46s1.58,2.68,1.52,2.77-.48.31-.54.23a15.65,15.65,0,0,0-1.33-2.69c-.23,0-.8.46-.71.62a15.87,15.87,0,0,1,1.44,2.67,3.4,3.4,0,0,1-.92.69c-.15,0-.19-.25-.46-.25a7.08,7.08,0,0,1-1.52-.25c-.31-.13-1.08-.61-1.33-.44a3,3,0,0,1-1.27.31,4.31,4.31,0,0,1-1.38-1c-.29-.29-.42-.79-.33-.91s.6-.92.73-.88a12.25,12.25,0,0,0,2.85.54c1,0,1.21-.25,1.21-.48s0-.47-.38-.47A16.65,16.65,0,0,1,29,54c-1.29-.37-2-.7-1.89-.89s.77-1.79,1.1-1.71a27.92,27.92,0,0,0,3.5.83,21.42,21.42,0,0,0,3,.23c.25,0,.42-.46.27-.56a27.34,27.34,0,0,0-3.06-.6,14.38,14.38,0,0,1-3.73-1.09c-.9-.48-1.33-.77-1.29-.91s.62-1.73.81-1.69a39.77,39.77,0,0,0,4.21.73c2.29.27,2.77.27,3,.19s.18-.5,0-.65a26.2,26.2,0,0,0-3.73-.58,12.47,12.47,0,0,1-3.17-.61c0-.1.42-.39.15-.64a11.17,11.17,0,0,1-1.36-1.25c-.25-.38-.29-.55-.23-.71s.42-.75.42-.75a21.79,21.79,0,0,0,2.62.29c.59,0,.82,0,.9.1a1.48,1.48,0,0,0,.71.48,9.76,9.76,0,0,0,3.54.27,10.12,10.12,0,0,0,3.23-.79,12.88,12.88,0,0,0-.1,2.31c.1.57.12.86.31,1S38.37,47.22,38.29,47.35ZM36,43A12.35,12.35,0,0,1,31,42.93,33.79,33.79,0,0,1,22.31,41c-1.75-.71-2.86-2.07-4.15-3.8a15,15,0,0,1-2.5-6.35,14.27,14.27,0,0,1,.27-5.92,11.87,11.87,0,0,1,2.31-5.08A15.34,15.34,0,0,1,23,15.37a17.24,17.24,0,0,1,7-2.56,17.44,17.44,0,0,1,8.11,1.81,17.87,17.87,0,0,1,6.35,5.5c1.67,2.52,2.25,3.33,2.65,6.42a15.56,15.56,0,0,1-.92,8.29,11.89,11.89,0,0,1-4.71,5.64A18.14,18.14,0,0,1,36,43ZM13.74,39.94c-.54-.32-.85-.37-2,.08a6.76,6.76,0,0,0-3.19,2.52,1,1,0,0,0,.7,1.64A2.41,2.41,0,0,0,11,43.62a22.1,22.1,0,0,0,2.76-2.49C14.23,40.6,14.29,40.27,13.74,39.94ZM10,29.58c-.24-.32-1.11-.37-1.89-.11a12.13,12.13,0,0,0-3.2,2,1.52,1.52,0,0,0-.3,1.79,1.22,1.22,0,0,0,1.5.55A13,13,0,0,0,9.23,32,2.49,2.49,0,0,0,10,29.58ZM6.45,18a12.55,12.55,0,0,0,3.31,1.05c.84.12,1.63-.11,1.75-.64s-.16-.67-.83-1.16S7.39,14.72,7,14.93C4.56,16.07,5.76,17.6,6.45,18ZM19.81,9.55A3.49,3.49,0,0,0,22,9.3c.18-.17.07-1.12-.46-1.73s-2.45-3.17-3.12-3c-1.78.53-1.64,1.86-1.24,2.42A15.47,15.47,0,0,0,19.81,9.55ZM33.29,8.24c.63.25.92-.23,1.31-.81a9.18,9.18,0,0,0,.75-3c0-.59.24-1-.51-1.53S33,2,32.48,3s-.09,4,0,4.4A1.48,1.48,0,0,0,33.29,8.24Zm14.58,6a7.23,7.23,0,0,0,3.16-3c.86-1.62-.08-2.48-1.44-2.11S46.2,13.38,46,13.65a1,1,0,0,0,.06,1C46.51,15,46.81,14.85,47.87,14.26Zm11,10.5c-.43-.36-1.33-.18-2.38.31s-5.27,2.61-5.28,3.14c0,1.17,1,.83,2.48.56s4.74-1.08,5.52-1.65S59.31,25.12,58.89,24.76Zm-3,14.79c-.61-.4-4.26-2.19-4.69-1.81-.14.13-1.47,1.2-1.48,1.72s2.31,1.66,3.58,2.19,2.4.87,3.07.12A1.54,1.54,0,0,0,55.87,39.55ZM45.56,43.3a1.63,1.63,0,0,0-1.24.27,1.22,1.22,0,0,0,.13,1.48c.5.72,1.89,3.24,2.37,3.49a1.86,1.86,0,0,0,1.71-.32.81.81,0,0,0,.36-1.15C48.71,46.71,45.66,43.34,45.56,43.3Z"/></svg>