<svg id="Layer_1" data-name="Layer 1" xmlns="http://www.w3.org/2000/svg" width="64" height="64" viewBox="0 0 64 64"><defs><style>.cls-1{fill:rgb(255, 251, 0);}</style></defs><title>thumbs-up</title><path class="cls-1" d="M53.34,33A3.19,3.19,0,0,0,52,30.26a4.61,4.61,0,0,1,.1-1.35,8.57,8.57,0,0,0-.47-3.4,6.67,6.67,0,0,0-3.28-4,5.91,5.91,0,0,0-3.16-.32,1.58,1.58,0,0,0-.81,1.38c0,.22.37.28,1.44.37s1.71.47,3.06,1.94A6,6,0,0,1,50,29.66a8.85,8.85,0,0,1-2.12,4.1c-1,1-3.13,1.43-3.47,1.75s.15,1,.65,1.06a7.2,7.2,0,0,0,3.35-.88c1.56-.78,2.4-2.75,2.75-2.68s.28,3.65-.35,6.62a7.36,7.36,0,0,1-3.5,5c-1.25.88-1.78.31-2.25.38s-.56,1-.43,1.15.75.63,2.59.41A5.38,5.38,0,0,0,50,45.38a9.3,9.3,0,0,1-1,2.72,6.2,6.2,0,0,1-2.59,2.63,11.74,11.74,0,0,1-4.91,1.46c-1.78.07-2.56-.53-3.81-2a2.5,2.5,0,0,1,.22-3.59c.62-.28,1.43.19,2,0s.59-1.19.4-1.59-.9-.69-2-1.41a3.23,3.23,0,0,1-1.46-2.81,4.5,4.5,0,0,1,1.62-3.41c.72-.34,1.31.31,1.66.31a1,1,0,0,0,.78-1c0-.62-.63-.9-1.31-1.28S38,34.6,37.87,31.91s2.9-4.81,3.15-5,.1-.56.07-.78,2.15-2.31,3.06-4.62.5-3.69-.16-6-3.87-5.19-6.69-5.66a8.39,8.39,0,0,0-5.5.91c-.09.22-.37,3.91-.68,5.5a19.82,19.82,0,0,1-2.88,6.22,7,7,0,0,1-3.84,2.15c-1.22.38-3.47,1.29-3.47,1.29-2.69-3.94-6.31-1.82-7.94.34s-2.28,5-2.44,10.87S12,46.38,13.18,48.13s3.16,3.25,5.31,3.1a5.29,5.29,0,0,0,3.35-1.47,16.58,16.58,0,0,0,4.53.81,10.52,10.52,0,0,0,4.81-1.16,10.14,10.14,0,0,0,1.69.88,10.29,10.29,0,0,0,2.56.5,9.11,9.11,0,0,0,.94,1.28,7.28,7.28,0,0,0,3.47,2c1.84.47,4.15-.1,7.56-1.69s3.72-4,4.53-6.28-.22-2.69-.38-2.94.22-1,1.22-3.34S53.4,34.94,53.34,33ZM36,44.19c.56.66.59.91.59.91s-1.31.75-1.59,1.66a8.39,8.39,0,0,0-.28,2.09,3.93,3.93,0,0,1-1.78-1.19c-.6-.81-.6-1.12-1-1.18a1.18,1.18,0,0,0-1.41.37A12.38,12.38,0,0,1,29.3,48c-.43.34-.65.31-.65.31s1.4-1.44,1.19-1.66-.75-.28-.91-.09a16,16,0,0,1-1.38,1.94,6.13,6.13,0,0,1-1.75.18c0-.12,2.35-2.72,2.29-2.93s-.5-.6-.85-.41-2.09,3.12-2.34,3.12-1.53-.09-1.44-.37,2.69-3.25,2.47-3.56-1,0-1.13,0-2,3.09-2.28,3.09-1.43-.53-1.28-.9S24,43.44,24,43.16s-.66-.5-.75-.47-2.31,3.41-2.66,3.38-1.21-.63-1-1.22,2.87-2.91,2.71-3.25-.71-.69-.87-.56S19.15,44.16,19,44a6.32,6.32,0,0,1-1.41-3.91c-.15-2.4.16-3.31,0-3.94s-.46-.65-1.09-.68-.78.68-.78,1.5-.41,4.68.91,7.43A11.36,11.36,0,0,0,20,48.63a2.37,2.37,0,0,1-2.47.56c-1.43-.53-3.25-2.71-4.28-6.56A27,27,0,0,1,13,31.88a15.49,15.49,0,0,1,2.35-5.44,2.3,2.3,0,0,1,3.9.54s-2,2.65-2,3.56-.12,1.31.44,1.59.94.28,1.5-1.09a7,7,0,0,1,2.5-3.22c.94-.56,2.06-.78,4.62-1.88s3.66-1.56,5-4.31a18.94,18.94,0,0,0,2.13-6.09c.37-2.19.44-3.19.44-3.19A5.36,5.36,0,0,1,38,11.94c2.16.75,3.78,3.19,4.28,5a7.79,7.79,0,0,1-.12,4.22c-.19.41-.41,1.07-.41,1.07a5.9,5.9,0,0,0-.15-2.66c-.44-1-.54-1.16-.79-1.16s-.84.19-.65.66a10,10,0,0,1,.59,2.5c0,.62.31,1.25.13,1.62a.91.91,0,0,1-.53.47s-.13-3.09-1-3.06-.88.72-.72,1a7.07,7.07,0,0,1,.59,2.31c0,.85.16,1.31,0,1.35s-.31-1.38-.75-1.85-.62-.5-.78-.25.69,1.31.69,1.63.06.75,0,.84-.82.56-.82.94,0,.84,0,.84A6.56,6.56,0,0,0,35.87,31a8.54,8.54,0,0,0,1.06,4.84s-2.09,2.28-2.22,4.25A6,6,0,0,0,36,44.19Zm-.47-27.28c.69-.06,1-2.43.88-2.72s-1-.11-1,0a22.34,22.34,0,0,1-.63,2.38C34.52,17.07,34.8,17,35.49,16.91ZM25.87,28.1c-1.47.38-2,.16-2.41.41a7,7,0,0,0-1.81,2.59c.06.38.57.38.75.34s1.28-1.53,1.56-1.75.75-.18,1.72-.31a8.15,8.15,0,0,0,3.19-1.81c.4-.44.5-.75.28-.72A29.81,29.81,0,0,1,25.87,28.1Zm15.84,6.5a3.2,3.2,0,0,0,.69-2.06,7.77,7.77,0,0,0-.66-3.47.84.84,0,0,0-.84.47c0,.19,0,.22.37,1.31A8.39,8.39,0,0,1,41.4,34C41.4,34.48,41.55,34.73,41.71,34.6Zm.53,4.88c-1.31-.1-.78.59-.62,1a7.45,7.45,0,0,1,.22,2c.09,1.38-.38,2.07,0,2.07s.59-.53.78-2S42.62,39.5,42.24,39.48ZM42,50.66a2.46,2.46,0,0,0,.16-1.59c-.13-.28-.6-.44-.78-.28a8.41,8.41,0,0,0-.07,2.4C41.49,51.48,41.71,51.1,42,50.66Z"/></svg>